<?xml version="1.0" encoding="utf-8"?>
<svg version="1.1" id="layer" 
  xmlns="http://www.w3.org/2000/svg" 
  xmlns:xlink="http://www.w3.org/1999/xlink" viewBox="0 0 1000 1000" style="fill: #aaa" xml:space="preserve">
  <path d="M917.4,459.7l72.6-42.6l-24.2-90.3l-84.2-0.6c-11.3-24.8-24.8-48.2-40.2-69.8l41.5-73.1l-66.2-66.1l-73.1,
    41.5c-21.9-15.6-45.3-29.1-69.8-40.3l-0.6-84.1L582.9,10l-42.6,72.5c-26.5-2.6-53.4-2.6-80.6,0.1L417.1,10l-90.3,
    24.2l-0.6,84.2c-24.8,11.3-48.2,24.8-69.8,40.2l-73.1-41.5l-66.1,66.1l41.5,73.1c-15.6,21.9-29.1,45.3-40.3,
    69.8l-84.1,0.6L10,417.1l72.5,42.6c-2.6,26.5-2.6,53.4,0.1,80.6L10,582.9l24.2,90.3l84.2,0.6c11.3,24.8,24.8,48.2,
    40.2,69.8l-41.5,73.1l66.1,66.1l73.1-41.5c21.9,15.6,45.3,29.1,69.8,40.3l0.6,84.1l90.3,24.2l42.6-72.5c26.5,2.6,
    53.4,2.6,80.6-0.1l42.6,72.6l90.3-24.2l0.6-84.2c24.8-11.3,48.2-24.8,69.8-40.2l73.1,
    41.5l66.2-66.1l-41.5-73.2c15.6-21.9,29.1-45.3,40.3-69.8l84.1-0.6l24.2-90.3l-72.5-42.6C920.1,513.8,920.1,486.9,
    917.4,459.7z M559.8,723.3c-123.3,33-250.1-40.1-283.2-163.5c-33-123.3,40.1-250.1,163.5-283.2c123.3-33,250.1,40.1,
    283.2,163.5C756.3,563.5,683.2,690.3,559.8,723.3z"/>
</svg>