<?xml version="1.0" encoding="utf-8"?>
<svg version="1.1" id="layer" 
  xmlns="http://www.w3.org/2000/svg" 
  xmlns:xlink="http://www.w3.org/1999/xlink" x="0px" y="0px" viewBox="122 72 398 401" style="enable-background:new 0 0 652 652;" xml:space="preserve">
  <style type="text/css">
    .st0{opacity:0.45;}
    .st1{clip-path:url(#SVGID_2_);fill:#F9A026;}
    .st2{opacity:0.6;}
    .st3{clip-path:url(#SVGID_4_);fill:#F9A026;}
    .st4{opacity:0.3;}
    .st5{clip-path:url(#SVGID_6_);fill:#F9A026;}
    .st6{clip-path:url(#SVGID_8_);fill:#F9A026;}
    .st7{clip-path:url(#SVGID_10_);fill:#F9A026;}
    .st8{clip-path:url(#SVGID_12_);fill:#F9A026;}
    .st9{clip-path:url(#SVGID_14_);fill:#F9A026;}
    .st10{opacity:0.8;}
    .st11{clip-path:url(#SVGID_16_);fill:#F9A026;}
    .st12{clip-path:url(#SVGID_18_);fill:#F9A026;}
    .st13{clip-path:url(#SVGID_20_);fill:#F9A026;}
    .st14{clip-path:url(#SVGID_22_);fill:#F9A026;}
    .st15{clip-path:url(#SVGID_24_);fill:#F9A026;}
    .st16{clip-path:url(#SVGID_26_);fill:#F9A026;}
    .st17{clip-path:url(#SVGID_28_);fill:#F9A026;}
    .st18{clip-path:url(#SVGID_30_);fill:#F9A026;}
    .st19{clip-path:url(#SVGID_32_);fill:#F9A026;}
    .st20{clip-path:url(#SVGID_34_);fill:#F9A026;}
    .st21{clip-path:url(#SVGID_36_);fill:#F9A026;}
    .st22{clip-path:url(#SVGID_38_);fill:#F9A026;}
    .st23{clip-path:url(#SVGID_40_);fill:#F9A026;}
    .st24{clip-path:url(#SVGID_42_);fill:#F9A026;}
    .st25{clip-path:url(#SVGID_44_);fill:#F9A026;}
    .st26{clip-path:url(#SVGID_46_);fill:#F9A026;}
    .st27{clip-path:url(#SVGID_48_);fill:#F9A026;}
  </style>
  <g>
    <g class="st0">
      <g>
        <defs>
          <rect id="SVGID_1_" x="431.2" y="71.8" width="46.9" height="79.2"/>
        </defs>
        <clipPath id="SVGID_2_">
          <use xlink:href="#SVGID_1_" style="overflow:visible;"/>
        </clipPath>
        <polygon class="st1" points="478.1,98.2 478.1,151 431.2,124.6 431.2,71.8"/>
      </g>
    </g>
    <g class="st2">
      <g>
        <defs>
          <rect id="SVGID_3_" x="431.2" y="98.2" width="46.9" height="79.2"/>
        </defs>
        <clipPath id="SVGID_4_">
          <use xlink:href="#SVGID_3_" style="overflow:visible;"/>
        </clipPath>
        <polygon class="st3" points="431.2,124.6 431.2,177.4 478.1,151 478.1,98.2"/>
      </g>
    </g>
    <g class="st4">
      <g>
        <defs>
          <rect id="SVGID_5_" x="122" y="367" width="187.7" height="105.6"/>
        </defs>
        <clipPath id="SVGID_6_">
          <use xlink:href="#SVGID_5_" style="overflow:visible;"/>
        </clipPath>
        <polygon class="st5" points="122,419.8 215.9,472.6 309.8,419.8 215.9,367"/>
      </g>
    </g>
    <g class="st0">
      <g>
        <defs>
          <rect id="SVGID_7_" x="122" y="314.2" width="93.9" height="158.4"/>
        </defs>
        <clipPath id="SVGID_8_">
          <use xlink:href="#SVGID_7_" style="overflow:visible;"/>
        </clipPath>
        <polygon class="st6" points="215.9,367 215.9,472.6 122,419.8 122,314.2"/>
      </g>
    </g>
    <g class="st0">
      <g>
        <defs>
          <rect id="SVGID_9_" x="215.9" y="261.4" width="93.9" height="158.4"/>
        </defs>
        <clipPath id="SVGID_10_">
          <use xlink:href="#SVGID_9_" style="overflow:visible;"/>
        </clipPath>
        <polygon class="st7" points="309.8,314.2 309.8,419.8 215.9,367 215.9,261.4"/>
      </g>
    </g>
    <g class="st2">
      <g>
        <defs>
          <rect id="SVGID_11_" x="215.9" y="314.2" width="93.9" height="158.4"/>
        </defs>
        <clipPath id="SVGID_12_">
          <use xlink:href="#SVGID_11_" style="overflow:visible;"/>
        </clipPath>
        <polygon class="st8" points="215.9,367 215.9,472.6 309.8,419.8 309.8,314.2"/>
      </g>
    </g>
    <g class="st2">
      <g>
        <defs>
          <rect id="SVGID_13_" x="122" y="261.4" width="93.9" height="158.4"/>
        </defs>
        <clipPath id="SVGID_14_">
          <use xlink:href="#SVGID_13_" style="overflow:visible;"/>
        </clipPath>
        <polygon class="st9" points="122,314.2 122,419.8 215.9,367 215.9,261.4"/>
      </g>
    </g>
    <g class="st10">
      <g>
        <defs>
          <rect id="SVGID_15_" x="319.7" y="162.8" width="93.9" height="52.8"/>
        </defs>
        <clipPath id="SVGID_16_">
          <use xlink:href="#SVGID_15_" style="overflow:visible;"/>
        </clipPath>
        <polygon class="st11" points="319.7,189.2 366.6,215.6 413.6,189.2 366.6,162.8"/>
      </g>
    </g>
    <g class="st10">
      <g>
        <defs>
          <rect id="SVGID_17_" x="122" y="261.4" width="187.7" height="105.6"/>
        </defs>
        <clipPath id="SVGID_18_">
          <use xlink:href="#SVGID_17_" style="overflow:visible;"/>
        </clipPath>
        <polygon class="st12" points="122,314.2 215.9,367 309.8,314.2 215.9,261.4"/>
      </g>
    </g>
    <g class="st4">
      <g>
        <defs>
          <rect id="SVGID_19_" x="332.1" y="367" width="187.7" height="105.6"/>
        </defs>
        <clipPath id="SVGID_20_">
          <use xlink:href="#SVGID_19_" style="overflow:visible;"/>
        </clipPath>
        <polygon class="st13" points="332.1,419.8 425.9,472.6 519.8,419.8 425.9,367"/>
      </g>
    </g>
    <g class="st0">
      <g>
        <defs>
          <rect id="SVGID_21_" x="332.1" y="314.2" width="93.9" height="158.4"/>
        </defs>
        <clipPath id="SVGID_22_">
          <use xlink:href="#SVGID_21_" style="overflow:visible;"/>
        </clipPath>
        <polygon class="st14" points="425.9,367 425.9,472.6 332.1,419.8 332.1,314.2"/>
      </g>
    </g>
    <g class="st0">
      <g>
        <defs>
          <rect id="SVGID_23_" x="425.9" y="261.4" width="93.9" height="158.4"/>
        </defs>
        <clipPath id="SVGID_24_">
          <use xlink:href="#SVGID_23_" style="overflow:visible;"/>
        </clipPath>
        <polygon class="st15" points="519.8,314.2 519.8,419.8 425.9,367 425.9,261.4"/>
      </g>
    </g>
    <g class="st2">
      <g>
        <defs>
          <rect id="SVGID_25_" x="425.9" y="314.2" width="93.9" height="158.4"/>
        </defs>
        <clipPath id="SVGID_26_">
          <use xlink:href="#SVGID_25_" style="overflow:visible;"/>
        </clipPath>
        <polygon class="st16" points="425.9,367 425.9,472.6 519.8,419.8 519.8,314.2"/>
      </g>
    </g>
    <g class="st2">
      <g>
        <defs>
          <rect id="SVGID_27_" x="332.1" y="261.4" width="93.9" height="158.4"/>
        </defs>
        <clipPath id="SVGID_28_">
          <use xlink:href="#SVGID_27_" style="overflow:visible;"/>
        </clipPath>
        <polygon class="st17" points="332.1,314.2 332.1,419.8 425.9,367 425.9,261.4"/>
      </g>
    </g>
    <g class="st10">
      <g>
        <defs>
          <rect id="SVGID_29_" x="332.1" y="261.4" width="187.7" height="105.6"/>
        </defs>
        <clipPath id="SVGID_30_">
          <use xlink:href="#SVGID_29_" style="overflow:visible;"/>
        </clipPath>
        <polygon class="st18" points="332.1,314.2 425.9,367 519.8,314.2 425.9,261.4"/>
      </g>
    </g>
    <g class="st2">
      <g>
        <defs>
          <rect id="SVGID_31_" x="319.7" y="110" width="46.9" height="79.2"/>
        </defs>
        <clipPath id="SVGID_32_">
          <use xlink:href="#SVGID_31_" style="overflow:visible;"/>
        </clipPath>
        <polygon class="st19" points="319.7,136.4 319.7,189.2 366.6,162.8 366.6,110"/>
      </g>
    </g>
    <g class="st4">
      <g>
        <defs>
          <rect id="SVGID_33_" x="225.8" y="189.2" width="187.7" height="105.6"/>
        </defs>
        <clipPath id="SVGID_34_">
          <use xlink:href="#SVGID_33_" style="overflow:visible;"/>
        </clipPath>
        <polygon class="st20" points="225.8,242 319.7,294.8 413.6,242 319.7,189.2"/>
      </g>
    </g>
    <g class="st0">
      <g>
        <defs>
          <rect id="SVGID_35_" x="225.8" y="136.4" width="93.9" height="158.4"/>
        </defs>
        <clipPath id="SVGID_36_">
          <use xlink:href="#SVGID_35_" style="overflow:visible;"/>
        </clipPath>
        <polygon class="st21" points="319.7,189.2 319.7,294.8 225.8,242 225.8,136.4"/>
      </g>
    </g>
    <g class="st2">
      <g>
        <defs>
          <rect id="SVGID_37_" x="225.8" y="83.6" width="93.9" height="158.4"/>
        </defs>
        <clipPath id="SVGID_38_">
          <use xlink:href="#SVGID_37_" style="overflow:visible;"/>
        </clipPath>
        <polygon class="st22" points="225.8,136.4 225.8,242 319.7,189.2 319.7,83.6"/>
      </g>
    </g>
    <g class="st2">
      <g>
        <defs>
          <rect id="SVGID_39_" x="319.7" y="162.8" width="93.9" height="132"/>
        </defs>
        <clipPath id="SVGID_40_">
          <use xlink:href="#SVGID_39_" style="overflow:visible;"/>
        </clipPath>
        <polygon class="st23" points="366.6,215.6 366.6,162.8 319.7,189.2 319.7,242 319.7,294.8 366.6,268.4 413.6,242 413.6,189.2 			
				"/>
      </g>
    </g>
    <g class="st0">
      <g>
        <defs>
          <rect id="SVGID_41_" x="319.7" y="83.6" width="93.9" height="158.4"/>
        </defs>
        <clipPath id="SVGID_42_">
          <use xlink:href="#SVGID_41_" style="overflow:visible;"/>
        </clipPath>
        <polygon class="st24" points="366.6,110 319.7,83.6 319.7,189.2 413.6,242 413.6,189.2 366.6,162.8"/>
      </g>
    </g>
    <g class="st10">
      <g>
        <defs>
          <rect id="SVGID_43_" x="225.8" y="83.6" width="140.8" height="105.6"/>
        </defs>
        <clipPath id="SVGID_44_">
          <use xlink:href="#SVGID_43_" style="overflow:visible;"/>
        </clipPath>
        <polygon class="st25" points="319.7,83.6 366.6,110 319.7,136.4 319.7,189.2 225.8,136.4"/>
      </g>
    </g>
    <g class="st10">
      <g>
        <defs>
          <rect id="SVGID_45_" x="384.2" y="71.8" width="93.9" height="52.8"/>
        </defs>
        <clipPath id="SVGID_46_">
          <use xlink:href="#SVGID_45_" style="overflow:visible;"/>
        </clipPath>
        <polygon class="st26" points="384.2,98.2 431.2,124.6 478.1,98.2 431.2,71.8"/>
      </g>
    </g>
  </g>
</svg>
